<svg id="Capa_1" fill="#002366" enable-background="new 0 0 512 512" height="512" viewBox="0 0 512 512" width="512" xmlns="http://www.w3.org/2000/svg"><g><path d="m327.276 275.429h30v30h-30z"/><path d="m258.215 275.429h30v30h-30z"/><path d="m189.152 275.429h30v30h-30z"/><path d="m512 118.286c0-65.223-53.062-118.286-118.286-118.286-47.587 0-88.694 28.25-107.448 68.857h-181.948l-6.886-68.857h-97.432v30h70.282l4.306 43.054 27.4 274.005c-19.27 6.751-33.131 25.11-33.131 46.655 0 27.255 22.174 49.428 49.429 49.428h23.208c-2.561 5.967-3.984 12.534-3.984 19.429 0 27.255 22.173 49.429 49.428 49.429s49.429-22.174 49.429-49.429c0-6.894-1.423-13.461-3.984-19.429h81.665c-2.561 5.967-3.984 12.534-3.984 19.429 0 27.255 22.174 49.429 49.429 49.429s49.429-22.174 49.429-49.429c0-6.894-1.423-13.461-3.984-19.429h36.777v-30h-323.429c-10.713 0-19.429-8.715-19.429-19.428s8.716-19.429 19.429-19.429h323.432l15.633-156.33c32.84-21.04 54.649-57.855 54.649-99.669zm-325.063 363.714c-10.713 0-19.428-8.716-19.428-19.429s8.715-19.428 19.428-19.428 19.429 8.715 19.429 19.428-8.716 19.429-19.429 19.429zm172.554 0c-10.713 0-19.429-8.716-19.429-19.429s8.716-19.428 19.429-19.428 19.429 8.715 19.429 19.428-8.716 19.429-19.429 19.429zm34.223-452c48.682 0 88.286 39.605 88.286 88.286s-39.604 88.286-88.286 88.286c-48.681 0-88.285-39.605-88.285-88.286s39.604-88.286 88.285-88.286zm20.853 314.286h-282.707l-24.542-245.429h169.715c-1.049 6.324-1.604 12.812-1.604 19.429 0 65.223 53.063 118.286 118.285 118.286 11.11 0 21.865-1.542 32.067-4.419z"/><path d="m451.125 100.518-21.213-21.213-46.142 46.142-26.254-26.253-21.213 21.213 47.467 47.467z"/></g></svg>