<svg id="Layer_1" fill="#02025c" enable-background="new 0 0 512.051 512.051" height="512" viewBox="0 0 512.051 512.051" width="512" xmlns="http://www.w3.org/2000/svg"><path d="m512.026 272.067c0-3.979-1.581-7.793-4.394-10.606l-45.444-45.444c-.148-.148-5.741-6.173-14.429-3.88v-197.137c0-8.284-6.716-15-15-15h-417.733c-8.284 0-15 6.716-15 15v417.733c0 8.284 6.716 15 15 15h193.411c109.983 142.333 332.636 28.188 279.5-145.365l19.696-19.696c2.812-2.812 4.393-6.627 4.393-10.605zm-321.334-242.067h66.4v50.333h-66.4zm-160.666 387.733v-387.733h130.667v65.333c0 8.284 6.716 15 15 15h96.4c8.284 0 15-6.716 15-15v-65.333h130.667v185.125c-133.93-78.429-289.718 60.66-227.038 202.608zm306.333 64.267c-71.462 0-129.6-58.138-129.6-129.6-.885-103.737 119.761-166.393 203.961-106.126l-74.36 74.359-24.283-24.284c-5.859-5.859-15.361-5.852-21.213 0l-45.444 45.444c-5.859 5.859-5.852 15.361 0 21.213l80.333 80.333c5.857 5.858 15.355 5.858 21.213 0l116.481-116.481c16.619 78.861-46.355 156.042-127.088 155.142zm0-70.48-59.12-59.12 24.23-24.23 24.283 24.284c5.859 5.859 15.361 5.852 21.213 0l104.616-104.617 24.231 24.23z"/></svg>