<svg id="Layer_1" fill="#02025c" data-name="Layer 1" xmlns="http://www.w3.org/2000/svg" viewBox="0 0 512 512"><title>sales and marketing</title><path d="M171.969,381.988c-.042,0-.083-.007-.125-.007s-.083.006-.125.007a11.368,11.368,0,0,1-11.233-11.352,6,6,0,0,0-12,0,23.4,23.4,0,0,0,17.358,22.573v5.112a6,6,0,0,0,12,0v-5.112a23.358,23.358,0,0,0-6-45.932A11.358,11.358,0,1,1,183.2,335.919a6,6,0,0,0,12,0,23.4,23.4,0,0,0-17.359-22.574v-4.322a6,6,0,0,0-12,0v4.322a23.358,23.358,0,0,0,6,45.932,11.356,11.356,0,0,1,.125,22.711Z"/><path d="M478.492,166.738H367.985a23.535,23.535,0,0,0-23.508,23.509v1.364a23.452,23.452,0,0,0,7.832,17.5,23.449,23.449,0,0,0-7.832,17.5v1.365a23.451,23.451,0,0,0,7.831,17.5,23.453,23.453,0,0,0-7.831,17.5v1.364a23.451,23.451,0,0,0,7.832,17.5,23.451,23.451,0,0,0-7.832,17.5V300.7a23.449,23.449,0,0,0,7.832,17.5,23.452,23.452,0,0,0-7.832,17.5v1.364a23.449,23.449,0,0,0,7.832,17.5,23.449,23.449,0,0,0-7.832,17.5v1.365a23.452,23.452,0,0,0,7.832,17.5,23.449,23.449,0,0,0-7.832,17.5v1.364a23.449,23.449,0,0,0,7.832,17.5,23.452,23.452,0,0,0-7.832,17.5v1.364a23.535,23.535,0,0,0,23.508,23.509H478.492A23.535,23.535,0,0,0,502,446.156v-1.364a23.453,23.453,0,0,0-7.833-17.5,23.449,23.449,0,0,0,7.833-17.5v-1.364a23.453,23.453,0,0,0-7.832-17.5,23.456,23.456,0,0,0,7.832-17.5v-1.365a23.449,23.449,0,0,0-7.833-17.5,23.45,23.45,0,0,0,7.833-17.5V335.7a23.456,23.456,0,0,0-7.832-17.5A23.452,23.452,0,0,0,502,300.7v-1.364a23.454,23.454,0,0,0-7.832-17.5,23.454,23.454,0,0,0,7.832-17.5v-1.364a23.454,23.454,0,0,0-7.832-17.5,23.452,23.452,0,0,0,7.832-17.5V226.61a23.452,23.452,0,0,0-7.832-17.5,23.456,23.456,0,0,0,7.832-17.5v-1.364A23.535,23.535,0,0,0,478.492,166.738ZM490,446.156a11.522,11.522,0,0,1-11.508,11.509H367.985a11.521,11.521,0,0,1-11.508-11.509v-1.364a11.515,11.515,0,0,1,11.29-11.5H478.71a11.516,11.516,0,0,1,11.29,11.5Zm0-36.363a11.516,11.516,0,0,1-11.29,11.5H367.767a11.515,11.515,0,0,1-11.29-11.5v-1.364a11.515,11.515,0,0,1,11.277-11.5H478.723A11.516,11.516,0,0,1,490,408.429Zm0-36.364a11.517,11.517,0,0,1-11.277,11.5H367.754a11.516,11.516,0,0,1-11.277-11.5v-1.365a11.514,11.514,0,0,1,11.29-11.5H478.71a11.515,11.515,0,0,1,11.29,11.5Zm0-36.364a11.516,11.516,0,0,1-11.29,11.5H367.767a11.515,11.515,0,0,1-11.29-11.5V335.7a11.516,11.516,0,0,1,11.277-11.5H478.723A11.517,11.517,0,0,1,490,335.7Zm0-36.363a11.515,11.515,0,0,1-11.277,11.5H367.754a11.515,11.515,0,0,1-11.277-11.5v-1.364a11.515,11.515,0,0,1,11.277-11.5H478.723A11.516,11.516,0,0,1,490,299.338Zm0-36.364a11.517,11.517,0,0,1-11.277,11.5H367.754a11.516,11.516,0,0,1-11.277-11.5v-1.364a11.515,11.515,0,0,1,11.277-11.5H478.723A11.516,11.516,0,0,1,490,262.974Zm0-36.363a11.516,11.516,0,0,1-11.277,11.5H367.754a11.515,11.515,0,0,1-11.277-11.5V226.61a11.515,11.515,0,0,1,11.283-11.5H478.717A11.515,11.515,0,0,1,490,226.61Zm0-36.364a11.516,11.516,0,0,1-11.283,11.5H367.76a11.516,11.516,0,0,1-11.283-11.5v-1.364a11.521,11.521,0,0,1,11.508-11.509H478.492A11.522,11.522,0,0,1,490,190.247Z"/><path d="M238.634,113.381a6,6,0,0,0-8.083-1L55.757,237.907a6,6,0,1,0,7,9.747L233.046,125.362l56.421,66.782a6,6,0,0,0,8.248.879L438.172,84.707l19.145,22.015a6,6,0,0,0,10.513-3.52l3.549-50.9a6,6,0,0,0-5.568-6.4l-50.9-3.548a6,6,0,0,0-4.945,9.923l20.318,23.363L294.931,180.017ZM428.525,55.328l30.466,2.124-2.124,30.465Z"/><path d="M33.508,468.755H144.015a23.534,23.534,0,0,0,23.508-23.508v-1.364a23.456,23.456,0,0,0-7.83-17.5,24.2,24.2,0,0,0,4.6-5.753,65.987,65.987,0,0,0,15.094,0,24.074,24.074,0,0,0,5.111,6.227,23.462,23.462,0,0,0-8.331,17.932v1.364a23.535,23.535,0,0,0,23.508,23.509H310.18a23.535,23.535,0,0,0,23.508-23.509v-1.364a23.461,23.461,0,0,0-8.366-17.962,24.142,24.142,0,0,0,.048-36.507,24.141,24.141,0,0,0,0-36.465,24.14,24.14,0,0,0,0-36.464,24.145,24.145,0,0,0,.262-36.238,23.452,23.452,0,0,0,8.056-17.694V262.1A23.534,23.534,0,0,0,310.18,238.59H199.673A23.534,23.534,0,0,0,176.165,262.1v1.364a23.451,23.451,0,0,0,8.054,17.692,24.29,24.29,0,0,0-4.612,5.586,67.267,67.267,0,0,0-74.892,61.16H34.19a24.174,24.174,0,0,0-15.871,42.423,24.144,24.144,0,0,0-.473,36.048A23.453,23.453,0,0,0,10,443.883v1.364A23.535,23.535,0,0,0,33.508,468.755Zm288.18-22.6a11.521,11.521,0,0,1-11.508,11.509H199.673a11.522,11.522,0,0,1-11.508-11.509v-1.364a11.521,11.521,0,0,1,11.508-11.508H310.18a11.52,11.52,0,0,1,11.508,11.508Zm-12.19-25.41H200.355a12.161,12.161,0,0,1-7.924-2.908,67.617,67.617,0,0,0,31.516-21.473H309.5a12.191,12.191,0,0,1,0,24.381Zm0-36.465H231.854a66.823,66.823,0,0,0,7.084-24.381H309.5a12.191,12.191,0,0,1,0,24.381Zm0-36.465H238.966a66.848,66.848,0,0,0-6.921-24.38H309.5a12.19,12.19,0,0,1,0,24.38Zm0-36.464H224.239a67.619,67.619,0,0,0-31.468-21.73,12.179,12.179,0,0,1,7.584-2.651H309.5a12.191,12.191,0,0,1,0,24.381ZM188.165,262.1a11.521,11.521,0,0,1,11.508-11.508H310.18A11.52,11.52,0,0,1,321.688,262.1v1.364a11.521,11.521,0,0,1-11.508,11.509H199.673a11.522,11.522,0,0,1-11.508-11.509Zm-16.321,36.181a55.393,55.393,0,1,1-55.393,55.394A55.456,55.456,0,0,1,171.844,298.279ZM34.19,359.9h70.56a66.842,66.842,0,0,0,7.084,24.381H34.19a12.191,12.191,0,0,1,0-24.381Zm0,36.465h85.551a67.605,67.605,0,0,0,31.491,21.464,12.129,12.129,0,0,1-5.289,2.63H31.586a12.187,12.187,0,0,1,2.6-24.094ZM22,443.883a11.523,11.523,0,0,1,9.387-11.305l114.708-.006a11.52,11.52,0,0,1,9.428,11.311v1.364a11.52,11.52,0,0,1-11.508,11.508H33.508A11.521,11.521,0,0,1,22,445.247Z"/></svg>